<svg width="371" height="115" viewBox="0 0 371 115" fill="none" xmlns="http://www.w3.org/2000/svg">
  <rect width="371" height="115" fill="#FFFFFF"/>
  <path d="M102.42 50V32.12H106.02L112.716 41H111.036L117.54 32.12H121.14V50H117.42V36.224L118.908 36.56L112.02 45.44H111.54L104.892 36.56L106.14 36.224V50H102.42ZM124.047 50V36.896H127.407V40.04L127.167 39.584C127.455 38.48 127.927 37.736 128.583 37.352C129.255 36.952 130.047 36.752 130.959 36.752H131.727V39.872H130.599C129.719 39.872 129.007 40.144 128.463 40.688C127.919 41.216 127.647 41.968 127.647 42.944V50H124.047ZM140.516 50L145.508 14.24H152.948L147.956 50H140.516ZM153.77 50L157.418 23.792H164.138L163.322 29.888L162.602 28.88C163.434 26.832 164.554 25.376 165.962 24.512C167.37 23.648 169.05 23.216 171.002 23.216C173.178 23.216 175.018 23.776 176.522 24.896C178.026 25.984 179.002 27.456 179.45 29.312L176.858 29.504C178.074 27.232 179.578 25.616 181.37 24.656C183.162 23.696 185.146 23.216 187.322 23.216C189.274 23.216 190.938 23.648 192.314 24.512C193.69 25.376 194.698 26.576 195.338 28.112C196.01 29.616 196.202 31.36 195.914 33.344L193.61 50H186.41L188.522 34.688C188.682 33.664 188.618 32.784 188.33 32.048C188.074 31.312 187.642 30.736 187.034 30.32C186.426 29.904 185.642 29.696 184.682 29.696C183.754 29.696 182.906 29.904 182.138 30.32C181.402 30.736 180.794 31.312 180.314 32.048C179.866 32.784 179.562 33.664 179.402 34.688L177.29 50H170.09L172.202 34.688C172.362 33.664 172.298 32.784 172.01 32.048C171.754 31.312 171.322 30.736 170.714 30.32C170.106 29.904 169.322 29.696 168.362 29.696C167.434 29.696 166.586 29.904 165.818 30.32C165.082 30.736 164.474 31.312 163.994 32.048C163.546 32.784 163.242 33.664 163.082 34.688L160.97 50H153.77ZM198.348 50L201.996 23.792H208.716L207.9 29.888L207.18 28.88C208.012 26.832 209.132 25.376 210.54 24.512C211.948 23.648 213.628 23.216 215.58 23.216C217.756 23.216 219.596 23.776 221.1 24.896C222.604 25.984 223.58 27.456 224.028 29.312L221.436 29.504C222.652 27.232 224.156 25.616 225.948 24.656C227.74 23.696 229.724 23.216 231.9 23.216C233.852 23.216 235.516 23.648 236.892 24.512C238.268 25.376 239.276 26.576 239.916 28.112C240.588 29.616 240.78 31.36 240.492 33.344L238.188 50H230.988L233.1 34.688C233.26 33.664 233.196 32.784 232.908 32.048C232.652 31.312 232.22 30.736 231.612 30.32C231.004 29.904 230.22 29.696 229.26 29.696C228.332 29.696 227.484 29.904 226.716 30.32C225.98 30.736 225.372 31.312 224.892 32.048C224.444 32.784 224.14 33.664 223.98 34.688L221.868 50H214.668L216.78 34.688C216.94 33.664 216.876 32.784 216.588 32.048C216.332 31.312 215.9 30.736 215.292 30.32C214.684 29.904 213.9 29.696 212.94 29.696C212.012 29.696 211.164 29.904 210.396 30.32C209.66 30.736 209.052 31.312 208.572 32.048C208.124 32.784 207.82 33.664 207.66 34.688L205.548 50H198.348ZM257.086 50.576C254.59 50.576 252.334 50.032 250.318 48.944C248.302 47.824 246.702 46.288 245.518 44.336C244.334 42.384 243.742 40.16 243.742 37.664C243.742 35.648 244.126 33.76 244.894 32C245.662 30.24 246.734 28.704 248.11 27.392C249.486 26.08 251.07 25.056 252.862 24.32C254.654 23.584 256.574 23.216 258.622 23.216C261.118 23.216 263.374 23.776 265.39 24.896C267.406 25.984 268.99 27.504 270.142 29.456C271.326 31.376 271.918 33.6 271.918 36.128C271.918 38.144 271.534 40.032 270.766 41.792C269.998 43.52 268.926 45.056 267.55 46.4C266.174 47.712 264.59 48.736 262.798 49.472C261.006 50.208 259.102 50.576 257.086 50.576ZM257.182 44.096C258.622 44.096 259.886 43.744 260.974 43.04C262.062 42.304 262.91 41.328 263.518 40.112C264.126 38.896 264.43 37.536 264.43 36.032C264.43 34.784 264.19 33.696 263.71 32.768C263.23 31.808 262.542 31.056 261.646 30.512C260.782 29.968 259.742 29.696 258.526 29.696C257.086 29.696 255.806 30.064 254.686 30.8C253.598 31.504 252.75 32.464 252.142 33.68C251.534 34.896 251.23 36.256 251.23 37.76C251.23 39.008 251.47 40.112 251.95 41.072C252.43 42 253.118 42.736 254.014 43.28C254.91 43.824 255.966 44.096 257.182 44.096Z" fill="#006F09"/>
  <path d="M233.336 63L234.584 54.06H237.884C238.46 54.06 238.964 54.164 239.396 54.372C239.828 54.572 240.164 54.872 240.404 55.272C240.652 55.672 240.776 56.168 240.776 56.76C240.776 57.184 240.7 57.576 240.548 57.936C240.404 58.296 240.192 58.608 239.912 58.872C239.64 59.136 239.308 59.344 238.916 59.496L240.416 63H238.436L236.768 59.016L237.884 59.76H235.652L235.196 63H233.336ZM235.88 58.14H237.476C237.756 58.14 238 58.08 238.208 57.96C238.424 57.84 238.592 57.676 238.712 57.468C238.84 57.26 238.904 57.024 238.904 56.76C238.904 56.432 238.796 56.172 238.58 55.98C238.372 55.78 238.088 55.68 237.728 55.68H236.216L235.88 58.14ZM244.418 63.144C243.754 63.144 243.178 63.004 242.69 62.724C242.202 62.436 241.826 62.048 241.562 61.56C241.306 61.072 241.178 60.532 241.178 59.94C241.178 59.436 241.266 58.968 241.442 58.536C241.618 58.096 241.866 57.708 242.186 57.372C242.506 57.036 242.878 56.776 243.302 56.592C243.726 56.4 244.186 56.304 244.682 56.304C245.346 56.304 245.906 56.436 246.362 56.7C246.818 56.956 247.162 57.308 247.394 57.756C247.634 58.204 247.754 58.712 247.754 59.28C247.754 59.432 247.742 59.584 247.718 59.736C247.694 59.888 247.662 60.052 247.622 60.228H242.702L242.798 58.908H246.686L245.786 59.508C245.89 59.172 245.91 58.872 245.846 58.608C245.782 58.344 245.646 58.136 245.438 57.984C245.238 57.824 244.982 57.744 244.67 57.744C244.262 57.744 243.938 57.848 243.698 58.056C243.458 58.264 243.282 58.54 243.17 58.884C243.066 59.228 243.014 59.608 243.014 60.024C243.014 60.352 243.07 60.636 243.182 60.876C243.294 61.108 243.458 61.284 243.674 61.404C243.89 61.524 244.15 61.584 244.454 61.584C244.782 61.584 245.07 61.516 245.318 61.38C245.566 61.244 245.758 61.064 245.894 60.84L247.31 61.572C247.158 61.892 246.938 62.172 246.65 62.412C246.362 62.644 246.026 62.824 245.642 62.952C245.266 63.08 244.858 63.144 244.418 63.144ZM248.321 63L249.233 56.448H250.913L250.745 57.744L250.673 57.408C250.881 57.016 251.157 56.736 251.501 56.568C251.853 56.392 252.249 56.304 252.689 56.304C253.193 56.304 253.621 56.424 253.973 56.664C254.325 56.896 254.581 57.212 254.741 57.612C254.909 58.012 254.957 58.46 254.885 58.956L254.321 63H252.521L253.049 59.172C253.105 58.796 253.037 58.496 252.845 58.272C252.653 58.04 252.381 57.924 252.029 57.924C251.797 57.924 251.581 57.976 251.381 58.08C251.189 58.184 251.029 58.328 250.901 58.512C250.773 58.696 250.689 58.916 250.649 59.172L250.121 63H248.321ZM258.733 63.072C257.925 63.072 257.325 62.852 256.933 62.412C256.541 61.964 256.397 61.356 256.501 60.588L256.861 58.008H255.757L255.973 56.448H255.997C256.333 56.448 256.609 56.356 256.825 56.172C257.049 55.988 257.185 55.728 257.233 55.392L257.293 54.96H259.117L258.901 56.448H260.413L260.197 58.008H258.685L258.325 60.564C258.293 60.788 258.301 60.972 258.349 61.116C258.397 61.252 258.489 61.352 258.625 61.416C258.769 61.48 258.961 61.512 259.201 61.512C259.273 61.512 259.341 61.512 259.405 61.512C259.477 61.504 259.565 61.492 259.669 61.476L259.537 63C259.417 63.032 259.281 63.052 259.129 63.06C258.985 63.068 258.853 63.072 258.733 63.072ZM262.657 63.144C262.217 63.144 261.833 63.076 261.505 62.94C261.177 62.804 260.921 62.604 260.737 62.34C260.561 62.068 260.473 61.74 260.473 61.356C260.473 60.924 260.581 60.56 260.797 60.264C261.021 59.96 261.321 59.716 261.697 59.532C262.081 59.348 262.513 59.22 262.993 59.148L265.057 58.824L264.925 60.144L263.245 60.456C262.997 60.504 262.781 60.592 262.597 60.72C262.421 60.84 262.333 61.016 262.333 61.248C262.333 61.448 262.405 61.596 262.549 61.692C262.693 61.78 262.877 61.824 263.101 61.824C263.397 61.824 263.657 61.756 263.881 61.62C264.113 61.484 264.301 61.304 264.445 61.08C264.597 60.856 264.689 60.612 264.721 60.348L264.949 58.68C264.973 58.496 264.941 58.34 264.853 58.212C264.765 58.084 264.641 57.984 264.481 57.912C264.321 57.84 264.145 57.804 263.953 57.804C263.609 57.804 263.301 57.9 263.029 58.092C262.757 58.276 262.553 58.512 262.417 58.8L261.025 58.044C261.193 57.676 261.429 57.364 261.733 57.108C262.037 56.852 262.389 56.656 262.789 56.52C263.189 56.376 263.613 56.304 264.061 56.304C264.613 56.304 265.101 56.408 265.525 56.616C265.957 56.824 266.285 57.112 266.509 57.48C266.741 57.848 266.821 58.276 266.749 58.764L266.161 63H264.469L264.613 61.944L265.093 61.908C264.869 62.196 264.633 62.432 264.385 62.616C264.137 62.8 263.869 62.932 263.581 63.012C263.301 63.1 262.993 63.144 262.657 63.144ZM267.481 63L268.753 53.916H270.565L269.293 63H267.481Z" fill="#006F09"/>
</svg>
